<svg xmlns="http://www.w3.org/2000/svg" viewBox="0 0 240 140" fill="none">
  <g fill="currentColor">
    <path d="M60 14c-22 0-38 17-38 39 0 17 9 29 24 36-6 14-16 26-32 38l12 13c24-11 44-28 58-50 7-10 10-21 10-34 0-27-15-42-34-42Zm108 0c-22 0-38 17-38 39 0 17 9 29 24 36-6 14-16 26-32 38l12 13c24-11 44-28 58-50 7-10 10-21 10-34 0-27-15-42-34-42Z"/>
    <path d="M45 53c0-12 7-22 18-22 13 0 19 8 19 20 0 12-7 22-18 22-13 0-19-8-19-20Zm108 0c0-12 7-22 18-22 13 0 19 8 19 20 0 12-7 22-18 22-13 0-19-8-19-20Z" opacity=".18"/>
  </g>
</svg>
