<svg xmlns="http://www.w3.org/2000/svg" viewBox="0 0 220 120" fill="none">
  <g fill="currentColor">
    <path d="M44 20c-17 0-29 12-29 28 0 15 10 27 24 31-5 10-12 19-24 28l9 11c24-11 46-35 46-67 0-20-10-31-26-31Zm92 0c-17 0-29 12-29 28 0 15 10 27 24 31-5 10-12 19-24 28l9 11c24-11 46-35 46-67 0-20-10-31-26-31Z"/>
    <rect x="20" y="45" width="8" height="3" opacity=".18"/>
    <rect x="118" y="54" width="10" height="3" opacity=".18"/>
    <rect x="58" y="72" width="7" height="2" opacity=".18"/>
    <rect x="160" y="42" width="6" height="2" opacity=".18"/>
  </g>
</svg>
